<svg width="24" height="30" viewBox="0 0 24 30" fill="none" xmlns="http://www.w3.org/2000/svg">
<g clip-path="url(#clip0)">
<path d="M4.35763 20.0843C3.96012 19.2324 3.93565 18.9865 4.81019 18.6985C6.3758 18.2186 5.29945 19.2504 7.45214 21.65H7.47053V16.017C7.54386 13.0056 10.1614 10.4861 13.4455 10.4861C16.7418 10.4861 19.4205 13.0956 19.4205 16.293C19.4205 20.0963 15.7022 23.0837 11.5619 21.8899C10.9197 21.638 11.4335 19.9883 12.0817 20.1742C15.323 20.1742 17.5491 19.5684 17.5491 16.311C17.5491 12.6516 12.8339 10.936 10.3999 13.6355C8.96272 15.2191 9.32351 16.161 9.32351 23.0897C12.4242 24.9494 16.5583 24.4094 19.133 21.8839C20.6497 20.3962 21.4876 18.4046 21.4876 16.305C21.4876 14.1934 20.6436 12.2137 19.1147 10.708C17.598 9.22029 15.5799 8.39843 13.4088 8.39843C11.2378 8.39843 9.20123 9.22629 7.69065 10.708C7.67234 10.726 6.71216 11.6979 6.39414 12.1417L6.36357 12.1777C6.16175 12.4597 5.97828 12.7236 5.13432 12.5436C4.71234 12.4417 4.25978 12.1957 4.25978 11.8358V0.629883C4.25978 0.329939 4.49829 0 4.90193 0H19.659C20.1666 0 20.1666 0.695871 20.1666 0.905829C20.1666 1.13979 20.1666 1.81166 19.659 1.81166H6.00886V9.78421H6.0272C12.3997 3.19741 23.3223 7.62457 23.3223 16.317C23.3223 27.001 8.35116 29.5325 4.35763 20.0843ZM8.22881 4.43917C8.19824 4.69113 8.51014 5.9089 9.1217 5.67494C16.7541 2.82547 21.5243 8.0985 21.9279 8.0985C22.2215 8.0985 23.3223 7.18064 22.8024 6.73075C17.1026 1.39174 8.46126 3.31139 8.22881 4.43917ZM22.0747 24.3075C15.3475 30.9003 3.78888 27.9548 1.77071 18.0566C1.77071 17.3248 -0.0884483 17.6127 0.00328646 18.2546C1.47104 28.6566 15.0478 33.6657 23.3406 25.5313C23.7626 25.0634 22.5701 23.8276 22.0747 24.3075ZM11.1032 17.8227C11.1032 18.0626 11.3662 18.2606 11.4396 18.3326C11.623 18.5126 11.8126 18.5966 11.9594 18.5966C12.1918 18.5966 12.1184 18.6086 13.3232 17.4268C14.5219 18.5846 14.4913 18.5966 14.687 18.5966C15.0172 18.5966 15.8184 17.9726 15.3414 17.5047L14.2834 16.4669L15.3964 15.3751C15.7817 14.9672 14.7787 14.0674 14.4056 14.4333L13.3109 15.5071C12.1734 14.3794 12.1857 14.3374 11.9961 14.3374C11.6903 14.3374 10.8953 15.0392 11.2378 15.3751L12.3508 16.4669C11.2438 17.5407 11.1032 17.6187 11.1032 17.8227Z" fill="#04ADBF"/>
</g>
<defs>
<clipPath id="clip0">
<rect width="23.7931" height="30" fill="white"/>
</clipPath>
</defs>
</svg>
