<svg width="33" height="42" viewBox="0 0 33 42" fill="none" xmlns="http://www.w3.org/2000/svg">
<path d="M6.04385 28.118C5.49251 26.9254 5.45858 26.5811 6.67152 26.1779C8.84295 25.5061 7.3501 26.9506 10.3358 30.31H10.3613V22.4238C10.463 18.2078 14.0934 14.6805 18.6483 14.6805C23.2202 14.6805 26.9354 18.3338 26.9354 22.8102C26.9354 28.1348 21.7782 32.3172 16.0358 30.6459C15.1452 30.2932 15.8577 27.9836 16.7568 28.2439C21.2523 28.2439 24.3398 27.3957 24.3398 22.8354C24.3398 17.7123 17.8001 15.3104 14.4242 19.0897C12.4309 21.3068 12.9313 22.6254 12.9313 32.3256C17.2318 34.9291 22.9657 34.1732 26.5367 30.6375C28.6403 28.5547 29.8023 25.7664 29.8023 22.827C29.8023 19.8707 28.6318 17.0992 26.5113 14.9912C24.4077 12.9084 21.6086 11.7578 18.5974 11.7578C15.5863 11.7578 12.7617 12.9168 10.6666 14.9912C10.6412 15.0164 9.30947 16.377 8.8684 16.9984L8.82599 17.0488C8.54608 17.4436 8.29161 17.8131 7.12108 17.5611C6.53581 17.4184 5.90813 17.074 5.90813 16.5701V0.881836C5.90813 0.461914 6.23893 0 6.79876 0H27.2662C27.9702 0 27.9702 0.974219 27.9702 1.26816C27.9702 1.5957 27.9702 2.53633 27.2662 2.53633H8.33403V13.6979H8.35947C17.1979 4.47637 32.347 10.6744 32.347 22.8438C32.347 37.8014 11.5827 41.3455 6.04385 28.118ZM11.413 6.21484C11.3706 6.56758 11.8032 8.27246 12.6514 7.94492C23.2372 3.95566 29.8532 11.3379 30.413 11.3379C30.8202 11.3379 32.347 10.0529 31.626 9.42305C23.7206 1.94844 11.7354 4.63594 11.413 6.21484ZM30.6166 34.0305C21.2863 43.2604 5.25501 39.1367 2.4559 25.2793C2.4559 24.2547 -0.122674 24.6578 0.00455818 25.5564C2.04027 40.1193 20.8706 47.132 32.3724 35.7438C32.9577 35.0887 31.3037 33.3586 30.6166 34.0305ZM15.3997 24.9518C15.3997 25.2877 15.7644 25.5648 15.8662 25.6656C16.1206 25.9176 16.3836 26.0352 16.5872 26.0352C16.9095 26.0352 16.8077 26.052 18.4787 24.3975C20.1412 26.0184 20.0988 26.0352 20.3702 26.0352C20.8282 26.0352 21.9394 25.1617 21.2778 24.5066L19.8104 23.0537L21.3541 21.5252C21.8885 20.9541 20.4974 19.6943 19.98 20.2066L18.4617 21.71C16.884 20.1311 16.901 20.0723 16.638 20.0723C16.2139 20.0723 15.1113 21.0549 15.5863 21.5252L17.13 23.0537C15.5947 24.557 15.3997 24.6662 15.3997 24.9518Z" fill="black"/>
</svg>
