<svg width="30" height="30" viewBox="0 0 30 30" fill="none" xmlns="http://www.w3.org/2000/svg">
<path d="M5.47817 24.4737H0.404253V8.13383H5.47817V24.4737ZM2.93848 5.90495C1.31601 5.90495 0 4.56106 0 2.93855C1.1613e-08 2.1592 0.309589 1.41176 0.860662 0.860682C1.41173 0.309596 2.15915 0 2.93848 0C3.71782 0 4.46523 0.309596 5.0163 0.860682C5.56737 1.41176 5.87696 2.1592 5.87696 2.93855C5.87696 4.56106 4.56041 5.90495 2.93848 5.90495ZM24.4682 24.4737H19.4052V16.5195C19.4052 14.6239 19.367 12.1929 16.7672 12.1929C14.1292 12.1929 13.7249 14.2524 13.7249 16.383V24.4737H8.65647V8.13383H13.5228V10.3627H13.5938C14.2712 9.07896 15.9259 7.72415 18.3946 7.72415C23.5297 7.72415 24.4737 11.1057 24.4737 15.498V24.4737H24.4682Z" fill="#04ADBF"/>
</svg>
