<svg width="103" height="166" viewBox="0 0 103 166" fill="none" xmlns="http://www.w3.org/2000/svg">
<path d="M77.4844 131.5C77.4844 141.344 73.3594 149.523 65.1094 156.039C57.3281 162.18 48.0938 165.25 37.4062 165.25C27.6562 165.25 19.4297 162.906 12.7266 158.219C5.27344 152.969 1.54688 145.844 1.54688 136.844C1.54688 130.516 4.125 125.102 9.28125 120.602C14.4844 116.055 20.7188 113.781 27.9844 113.781C35.0625 113.781 40.8047 115.141 45.2109 117.859C50.1328 120.906 52.5938 125.219 52.5938 130.797C52.5938 134.875 50.9297 138.273 47.6016 140.992C44.3203 143.664 40.5 145 36.1406 145C32.1562 145 28.8047 144.25 26.0859 142.75C22.8516 140.969 21.2344 138.438 21.2344 135.156C21.2344 133.188 22.0547 131.547 23.6953 130.234C24.9609 129.203 26.0859 128.617 27.0703 128.477C28.0547 128.336 28.5938 128.266 28.6875 128.266C29.0625 128.266 29.25 128.406 29.25 128.688C29.1562 128.969 29.0625 129.25 28.9688 129.531C28.9219 129.625 28.8281 129.906 28.6875 130.375C28.4062 131.312 28.2656 132.344 28.2656 133.469C28.2656 134.922 28.9922 136.188 30.4453 137.266C31.9453 138.297 33.5625 138.812 35.2969 138.812C38.2031 138.812 40.6172 137.922 42.5391 136.141C44.4609 134.359 45.4219 132.156 45.4219 129.531C45.4219 125.594 43.4766 122.523 39.5859 120.32C36.2109 118.398 32.1562 117.438 27.4219 117.438C21.375 117.438 16.1484 119.219 11.7422 122.781C7.10156 126.531 4.78125 131.219 4.78125 136.844C4.78125 144.156 8.27344 150.016 15.2578 154.422C21.4922 158.359 28.9219 160.328 37.5469 160.328C46.3125 160.328 53.8359 157.609 60.1172 152.172C66.6328 146.547 69.8906 139.562 69.8906 131.219C69.8906 126.672 68.8125 122.688 66.6562 119.266C64.7812 116.266 61.8984 113.383 58.0078 110.617C55.3359 108.695 51.2812 106.328 45.8438 103.516C38.9062 100.234 31.9922 96.9297 25.1016 93.6016C18.1172 89.5234 14.625 84.7188 14.625 79.1875C14.625 73.7031 17.4141 69.4375 22.9922 66.3906C27.8203 63.7656 33.7031 62.4531 40.6406 62.4531C45.9375 62.4531 50.1328 63.0391 53.2266 64.2109C57.4922 65.8047 59.625 68.4531 59.625 72.1562C59.625 73.6562 59.0156 75.0156 57.7969 76.2344C56.625 77.4062 55.5703 78.0391 54.6328 78.1328C53.7422 78.2266 53.0859 78.2734 52.6641 78.2734C51.6328 78.2734 50.7656 78.1094 50.0625 77.7812C49.5469 77.4062 49.2891 77.1719 49.2891 77.0781C49.2891 76.8438 49.4531 76.5625 49.7812 76.2344C50.4375 75.5781 50.9062 74.8984 51.1875 74.1953C51.4688 73.4453 51.6094 72.6719 51.6094 71.875C51.6094 69.5781 50.3438 67.8438 47.8125 66.6719C45.7969 65.7344 43.2656 65.2656 40.2188 65.2656C35.2969 65.2656 31.1953 66.0391 27.9141 67.5859C23.9297 69.4609 21.9375 72.1562 21.9375 75.6719C21.9375 78.25 23.3672 80.6172 26.2266 82.7734C28.2422 84.2734 31.7578 86.125 36.7734 88.3281C44.2266 91.5625 48.5625 93.4844 49.7812 94.0938C56.0625 97.1406 60.8438 99.9297 64.125 102.461C68.5312 105.836 71.7891 109.656 73.8984 113.922C76.2891 118.75 77.4844 124.609 77.4844 131.5Z" fill="white"/>
<path d="M102.125 112.922C102.125 119.812 99.7109 125.602 94.8828 130.289C90.1016 134.93 84.1719 137.25 77.0938 137.25C73.6719 137.25 69.9453 136.57 65.9141 135.211C56.8672 132.164 50.8438 130.641 47.8438 130.641C44.4688 130.641 41.7266 131.086 39.6172 131.977C37.5547 132.82 35.8438 134.109 34.4844 135.844C34.1094 136.219 33.8281 136.406 33.6406 136.406C33.5 136.406 33.3125 136.266 33.0781 135.984C32.7031 135.375 32.375 134.859 32.0938 134.438C31.625 133.734 30.9922 133.055 30.1953 132.398C29.4453 131.742 28.6016 131.227 27.6641 130.852C27.4297 130.758 26.75 130.547 25.625 130.219C25.2031 130.125 24.9922 130.008 24.9922 129.867C24.9922 129.727 25.1562 129.516 25.4844 129.234C29.9844 126.141 33.3594 122.344 35.6094 117.844C37.4844 114.094 38.4219 110.016 38.4219 105.609V43.4531C38.4219 42.5625 37.7188 41.5547 36.3125 40.4297C35.2812 39.6328 34.25 38.8125 33.2188 37.9688C33.0781 37.7812 33.0312 37.5 33.0781 37.125C33.1719 36.75 33.5469 36.5625 34.2031 36.5625C34.6719 36.5156 36.0781 36.5859 38.4219 36.7734C40.7656 36.9141 42.4062 36.9844 43.3438 36.9844C45.2188 36.9844 47.1172 36.9141 49.0391 36.7734C51.0078 36.6328 52.1094 36.5625 52.3438 36.5625C53.1875 36.5625 53.6094 36.8203 53.6094 37.3359C53.6094 37.6172 53.5156 37.875 53.3281 38.1094C53.2344 38.25 52.2734 39.0234 50.4453 40.4297C48.9922 41.5547 48.2656 42.5625 48.2656 43.4531V99.1406C48.2656 105.703 46.8125 111.891 43.9062 117.703C41.75 122.016 39.0312 125.719 35.75 128.812C38.1875 127.219 40.8125 125.883 43.625 124.805C47.1875 123.445 50.5156 122.766 53.6094 122.766C56.8438 122.766 62.7031 124.289 71.1875 127.336C75.2188 128.789 78.9219 129.516 82.2969 129.516C86.5625 129.516 90.125 128.133 92.9844 125.367C96.0781 122.367 97.625 118.359 97.625 113.344C97.625 108.047 96.2891 103.734 93.6172 100.406C90.9922 97.0312 87.5 95.3438 83.1406 95.3438C80.2812 95.3438 77.9609 96.0234 76.1797 97.3828C74.4453 98.6953 73.5781 100.5 73.5781 102.797C73.5781 104.672 74.0938 106.031 75.125 106.875C75.9219 107.531 77 107.859 78.3594 107.859C78.875 107.812 79.4141 107.695 79.9766 107.508C80.5391 107.32 81.0312 107.156 81.4531 107.016C81.7812 106.828 81.9688 106.875 82.0156 107.156C82.0156 107.438 82.0156 107.719 82.0156 108C82.0156 109.453 81.1719 110.766 79.4844 111.938C77.8438 113.062 76.0156 113.625 74 113.625C71.0469 113.625 68.6328 112.641 66.7578 110.672C64.9297 108.656 64.0156 105.984 64.0156 102.656C64.0156 98.7656 65.6797 95.625 69.0078 93.2344C72.3359 90.7969 76.1562 89.5781 80.4688 89.5781C86.7031 89.5781 91.8594 91.8281 95.9375 96.3281C100.062 100.781 102.125 106.312 102.125 112.922Z" fill="white"/>
<path d="M28.1249 130.75C27.79 131.592 27.2461 132.674 27.3332 133.611C27.3702 134.009 27.9479 133.118 27.9652 133.09C28.3185 132.517 28.631 131.904 28.8888 131.281C28.9527 131.127 28.9965 130.947 29.0832 130.802C29.2606 130.506 28.7316 131.395 28.5485 131.687C28.1283 132.358 27.6883 133.015 27.2707 133.687C27.1046 133.955 26.6607 134.785 26.7777 134.493C26.9086 134.166 27.1969 133.858 27.3888 133.569C28.0046 132.644 28.518 131.667 29.0207 130.677C29.2635 130.199 29.3735 129.976 29.6145 129.524C29.7129 129.34 29.7342 129.067 29.9235 128.979C29.9803 128.953 29.9389 129.104 29.9374 129.167C29.9277 129.581 29.8776 129.991 29.7881 130.396C29.4615 131.875 28.8719 133.322 28.1978 134.67C28.0138 135.038 28.6421 133.978 28.8541 133.625C29.4642 132.61 29.9651 131.545 30.2846 130.403C30.3092 130.315 30.6345 129.272 30.2395 129.962C29.6383 131.011 29.0711 132.087 28.5554 133.181C28.2078 133.918 27.8979 134.666 27.6353 135.437C27.4851 135.879 28.0283 135.277 28.1041 135.208C28.8812 134.508 29.6254 133.767 30.302 132.969C30.6153 132.599 31.0497 132.157 31.2707 131.715C31.52 131.217 30.6625 132.65 30.3818 133.132C29.8086 134.116 29.176 135.051 28.5485 136C28.4559 136.14 28.3358 136.466 28.2013 136.583C27.9584 136.796 28.4574 135.991 28.6006 135.701C28.8761 135.145 29.1072 134.578 29.3332 134C29.5046 133.562 29.438 134.071 29.4166 134.253C29.3124 135.139 28.974 135.958 28.6804 136.792C28.5569 137.143 28.1584 138.181 28.3367 137.854C29.0272 136.588 29.7845 135.329 30.5311 134.094C31.0152 133.293 29.83 135.829 29.4929 136.701C29.4132 136.908 29.3469 137.12 29.2568 137.323C29.1958 137.46 29.3718 137.045 29.4374 136.91C29.5486 136.681 30.0828 135.52 29.6943 136.406C29.3063 137.292 28.8545 138.209 28.5693 139.135C28.5312 139.259 28.706 138.915 28.7707 138.802C29.21 138.039 29.5517 137.219 29.861 136.396C30.2712 135.304 30.5812 134.185 30.8923 133.062C30.9886 132.715 31.2603 131.896 31.0832 132.778C30.88 133.789 30.6021 134.791 30.3159 135.781C30.1828 136.242 30.1279 136.418 29.9825 136.854C29.9067 137.082 29.5661 137.667 29.7707 137.542C29.8997 137.463 29.9161 137.276 29.9791 137.139C30.2072 136.641 30.4123 136.133 30.6179 135.625C31.0415 134.58 31.4527 133.529 31.8818 132.486C31.9025 132.436 32.2802 131.585 32.1666 131.854C31.7059 132.943 31.238 134.025 30.8575 135.146C30.5194 136.142 30.1643 137.163 29.9513 138.194C29.7965 138.944 30.383 137.772 30.4339 137.691C31.1611 136.529 31.9217 135.389 32.6527 134.229C32.9016 133.834 33.0766 133.543 33.3124 133.146C33.4321 132.944 33.7386 132.319 33.677 132.545C33.6333 132.705 33.53 132.843 33.4513 132.99C33.1258 133.595 32.7862 134.193 32.4374 134.785C31.8988 135.699 31.3538 136.614 30.7811 137.507C30.7114 137.616 30.4188 138.105 30.6075 137.583C31.0008 136.496 31.4319 135.426 31.7707 134.319C31.9449 133.75 32.0065 133.021 32.2742 132.486C32.4992 132.036 32.1091 133.481 31.9721 133.965C31.7184 134.862 31.4399 135.755 31.1041 136.625C31.099 136.638 30.8202 137.505 30.8124 137.208C30.7924 136.45 30.8572 135.689 30.7499 134.937" stroke="white" stroke-linecap="round" stroke-linejoin="round"/>
<path d="M29.9999 131.875C29.7318 131.757 29.4685 131.679 29.5034 132.062C29.532 132.377 29.8933 132.545 30.1423 132.674C30.3819 132.798 30.3486 132.095 30.3055 131.944C30.2154 131.629 29.6212 132.281 29.5763 132.375C29.5326 132.466 29.3221 132.938 29.5069 133C30.0512 133.181 30.1918 132.457 30.2708 132.097C30.3321 131.817 30.2476 131.914 30.1319 132.083C29.9557 132.341 29.7708 132.605 29.6388 132.889C29.4502 133.295 29.453 133.399 29.8749 133.437" stroke="white" stroke-linecap="round" stroke-linejoin="round"/>
<path d="M34.125 135.375C33.8263 136.095 33.1254 136.371 32.75 137.028C32.5708 137.341 32.2531 137.638 32.0313 137.934C31.9246 138.076 31.8006 138.171 31.7188 138.344C31.663 138.461 31.5864 138.528 31.5035 138.625C31.3585 138.794 31.4375 138.502 31.4375 138.375" stroke="white" stroke-linecap="round" stroke-linejoin="round"/>
<path d="M33.125 134.312C33.125 135.77 32.1287 136.855 31.2153 137.896C31.077 138.054 30.9137 138.189 30.8125 138.375C30.8063 138.386 30.5943 138.7 30.5764 138.597C30.5479 138.433 30.7749 138.153 30.8473 138.028C31.2475 137.335 31.682 136.662 32.132 136C32.9314 134.824 33.799 133.7 34.5625 132.5" stroke="white" stroke-linecap="round" stroke-linejoin="round"/>
</svg>
